M48
INCH,TZ
T1C0.015
T2C0.050
T3C0.067
T4C0.087
%
G90
G05
T1
X000394Y-008268
X000394Y-008760
X000591Y-007480
X000591Y-009547
X001870Y-008169
X001870Y-008858
X002244Y-006260
X002874Y-006260
X003504Y-006260
X003543Y-000394
X003543Y-000787
X003543Y-004528
X003543Y-004921
X003543Y-005315
X005709Y-009547
X006024Y-006260
X007283Y-006260
X007283Y-008661
X007677Y-002067
X008543Y-006260
X008543Y-008661
X008858Y-009547
X010433Y-005315
X010433Y-009646
X012205Y-004429
X012500Y-000787
X012598Y-006890
X012598Y-008071
X012992Y-006988
X013189Y-003642
X013681Y-005807
X013976Y-005512
X014567Y-004823
X014764Y-000787
X014862Y-005118
X015157Y-003051
X015453Y-002756
X015748Y-002461
X015748Y-007283
X015945Y-005315
X016339Y-005315
X016437Y-009154
X016634Y-005020
X016634Y-005610
X016929Y-004724
X016929Y-005906
X017126Y-003346
X017323Y-007972
X017618Y-003937
X017618Y-006791
X018209Y-006791
X018799Y-002165
X018799Y-002953
X018799Y-009154
X018898Y-006988
X019587Y-002165
X019587Y-002953
X019882Y-005906
X020374Y-002165
X020472Y-002953
X020472Y-008465
X020669Y-003543
X020669Y-005906
X020866Y-006988
X021063Y-002953
X021161Y-002165
X021161Y-008465
X021358Y-004724
X021457Y-005807
X021752Y-006988
X021752Y-008465
X021949Y-002165
X021949Y-005118
X022047Y-005807
X022441Y-004823
X022441Y-006890
X022441Y-009055
X022736Y-002165
X023228Y-002953
X023720Y-002461
X024016Y-003346
X024902Y-004823
X024902Y-005807
T2
X000787Y-003634
X000787Y-004634
X010039Y-000878
X010039Y-001878
X011555Y-004398
X011564Y-006390
X011564Y-008390
X011664Y-005390
X011664Y-007390
X011664Y-009390
X013386Y-008358
X013386Y-009358
X017520Y-000878
X017520Y-001878
X019079Y-000787
X020079Y-000787
X021079Y-000787
X023622Y-007071
X023622Y-008071
X023622Y-009071
T3
X006148Y-003346
X009148Y-003346
X022348Y-003346
X025348Y-003346
T4
X000787Y-000787
X025394Y-000787
T0
M30
