G04 (created by PCBNEW (2013-07-07 BZR 4022)-stable) date 2/9/2014 4:03:41 PM*
%MOIN*%
G04 Gerber Fmt 3.4, Leading zero omitted, Abs format*
%FSLAX34Y34*%
G01*
G70*
G90*
G04 APERTURE LIST*
%ADD10C,0.00590551*%
%ADD11R,0.0476378X0.0232283*%
%ADD12R,0.0232283X0.0476378*%
%ADD13R,0.0161417X0.061811*%
%ADD14R,0.0161417X0.057874*%
%ADD15R,0.0559055X0.0185039*%
%ADD16R,0.0393701X0.0374016*%
%ADD17R,0.0244094X0.0244094*%
%ADD18R,0.0708661X0.0787402*%
%ADD19R,0.0452756X0.106299*%
%ADD20R,0.0452756X0.0570866*%
%ADD21R,0.0393701X0.0393701*%
%ADD22R,0.075X0.075*%
%ADD23C,0.075*%
%ADD24R,0.0811024X0.0791339*%
%ADD25C,0.0984252*%
%ADD26C,0.0787402*%
%ADD27C,0.110236*%
%ADD28R,0.165X0.0701*%
%ADD29R,0.165X0.1049*%
G04 APERTURE END LIST*
G54D10*
G54D11*
X3935Y-2775D03*
X4923Y-2775D03*
X3935Y-3523D03*
X3935Y-3149D03*
X4923Y-3523D03*
X4923Y-3149D03*
G54D12*
X8051Y-2852D03*
X7677Y-3840D03*
X7303Y-2852D03*
G54D13*
X13297Y-6444D03*
X16624Y-6444D03*
X16624Y-4185D03*
X13297Y-4185D03*
X13553Y-6444D03*
X16368Y-6444D03*
X16368Y-4185D03*
X13553Y-4185D03*
X13809Y-6444D03*
X16112Y-6444D03*
X16112Y-4185D03*
X13809Y-4185D03*
X14064Y-6444D03*
X15856Y-6444D03*
X15856Y-4185D03*
X14064Y-4185D03*
X14320Y-6444D03*
X15600Y-6444D03*
X15600Y-4185D03*
X14320Y-4185D03*
X14576Y-6444D03*
X15344Y-6444D03*
X15344Y-4185D03*
X14576Y-4185D03*
X14832Y-6444D03*
X15088Y-6444D03*
X15088Y-4185D03*
X14832Y-4185D03*
G54D14*
X19064Y-6444D03*
X19320Y-6444D03*
X19576Y-6444D03*
X19832Y-6444D03*
X20088Y-6444D03*
X20344Y-6444D03*
X20600Y-6444D03*
X20856Y-6444D03*
X21112Y-6444D03*
X21368Y-6444D03*
X21624Y-6444D03*
X21879Y-6444D03*
X21879Y-4185D03*
X21624Y-4185D03*
X21368Y-4185D03*
X21112Y-4185D03*
X20856Y-4185D03*
X20600Y-4185D03*
X20344Y-4185D03*
X20088Y-4185D03*
X19832Y-4185D03*
X19576Y-4185D03*
X19320Y-4185D03*
X19064Y-4185D03*
G54D15*
X16470Y-8080D03*
X16470Y-8336D03*
X16470Y-8592D03*
X16470Y-8848D03*
X18175Y-8848D03*
X18175Y-8592D03*
X18175Y-8336D03*
X18175Y-8080D03*
G54D16*
X14566Y-8385D03*
X14566Y-7755D03*
X15354Y-8385D03*
X15354Y-7755D03*
G54D17*
X17322Y-7460D03*
X17322Y-7106D03*
X18503Y-4507D03*
X18503Y-4153D03*
X23031Y-5137D03*
X23031Y-5492D03*
X4744Y-4133D03*
X5098Y-4133D03*
X22440Y-5492D03*
X22440Y-5137D03*
X12598Y-5137D03*
X12598Y-5492D03*
X16141Y-7106D03*
X16141Y-7460D03*
X16732Y-9468D03*
X16732Y-9822D03*
X17913Y-9822D03*
X17913Y-9468D03*
X7992Y-2066D03*
X8346Y-2066D03*
X7362Y-2066D03*
X7007Y-2066D03*
G54D18*
X19472Y-9291D03*
X20472Y-9291D03*
X21472Y-9291D03*
X21472Y-7637D03*
X20472Y-7637D03*
X19472Y-7637D03*
G54D16*
X14566Y-9133D03*
X14566Y-9763D03*
X15354Y-9133D03*
X15354Y-9763D03*
G54D19*
X5019Y-1673D03*
X3838Y-1673D03*
G54D17*
X20492Y-2559D03*
X20846Y-2559D03*
X19665Y-2559D03*
X19311Y-2559D03*
X767Y-7874D03*
X413Y-7874D03*
X5807Y-9842D03*
X6161Y-9842D03*
X23622Y-4153D03*
X23622Y-4507D03*
X23622Y-5137D03*
X23622Y-5492D03*
X21062Y-3346D03*
X21417Y-3346D03*
X767Y-9133D03*
X413Y-9133D03*
X8759Y-9842D03*
X8405Y-9842D03*
G54D20*
X4783Y-4921D03*
X4074Y-4921D03*
X4783Y-590D03*
X4074Y-590D03*
X7874Y-4921D03*
X8582Y-4921D03*
G54D17*
X12598Y-6122D03*
X12598Y-6476D03*
X13996Y-590D03*
X14350Y-590D03*
X787Y-8326D03*
X787Y-8681D03*
X24133Y-5807D03*
X24488Y-5807D03*
X13366Y-590D03*
X13011Y-590D03*
X4114Y-4133D03*
X3759Y-4133D03*
X16732Y-7106D03*
X16732Y-7460D03*
X17913Y-7460D03*
X17913Y-7106D03*
X16141Y-9468D03*
X16141Y-9822D03*
X17322Y-9822D03*
X17322Y-9468D03*
X18503Y-9468D03*
X18503Y-9822D03*
X17322Y-4153D03*
X17322Y-4507D03*
X6673Y-9842D03*
X7027Y-9842D03*
X7893Y-9842D03*
X7539Y-9842D03*
X6791Y-5078D03*
X7145Y-5078D03*
X17322Y-6122D03*
X17322Y-6476D03*
X18503Y-5137D03*
X18503Y-5492D03*
X17913Y-5137D03*
X17913Y-5492D03*
X17913Y-4153D03*
X17913Y-4507D03*
X18503Y-6122D03*
X18503Y-6476D03*
X2736Y-9842D03*
X2381Y-9842D03*
X17913Y-6122D03*
X17913Y-6476D03*
X22440Y-6122D03*
X22440Y-6476D03*
X23031Y-4507D03*
X23031Y-4153D03*
X22440Y-4507D03*
X22440Y-4153D03*
X23622Y-3169D03*
X23622Y-3523D03*
X24133Y-3838D03*
X24488Y-3838D03*
X24133Y-4822D03*
X24488Y-4822D03*
X9271Y-9842D03*
X9625Y-9842D03*
X22440Y-8287D03*
X22440Y-8641D03*
X18503Y-7460D03*
X18503Y-7106D03*
G54D21*
X1456Y-9133D03*
X1456Y-8503D03*
X1456Y-7874D03*
X2244Y-9133D03*
X2874Y-9133D03*
X3503Y-9133D03*
X4133Y-9133D03*
X4763Y-9133D03*
X5393Y-9133D03*
X6023Y-9133D03*
X6653Y-9133D03*
X7283Y-9133D03*
X7913Y-9133D03*
X8543Y-9133D03*
X9173Y-9133D03*
X9803Y-9133D03*
X10433Y-9133D03*
X10433Y-8090D03*
X10433Y-7460D03*
X10433Y-6830D03*
X10433Y-5787D03*
X9803Y-5787D03*
X9173Y-5787D03*
X8543Y-5787D03*
X7913Y-5787D03*
X7283Y-5787D03*
X6653Y-5787D03*
X6023Y-5787D03*
X5393Y-5787D03*
X4763Y-5787D03*
X4133Y-5787D03*
X3503Y-5787D03*
X2874Y-5787D03*
X2244Y-5787D03*
X1456Y-5787D03*
X1456Y-6417D03*
G54D22*
X11664Y-9389D03*
G54D23*
X11564Y-8389D03*
X11664Y-7389D03*
X11564Y-6389D03*
X11664Y-5389D03*
X11555Y-4397D03*
G54D22*
X17519Y-877D03*
G54D23*
X17519Y-1877D03*
G54D22*
X13385Y-8358D03*
G54D23*
X13385Y-9358D03*
G54D22*
X10039Y-877D03*
G54D23*
X10039Y-1877D03*
G54D22*
X787Y-3633D03*
G54D23*
X787Y-4633D03*
G54D22*
X19078Y-787D03*
G54D23*
X20078Y-787D03*
X21078Y-787D03*
G54D22*
X23622Y-7070D03*
G54D23*
X23622Y-8070D03*
X23622Y-9070D03*
G54D17*
X12598Y-7657D03*
X12598Y-7303D03*
G54D24*
X12883Y-1574D03*
X14478Y-1574D03*
G54D20*
X18267Y-3346D03*
X17559Y-3346D03*
G54D25*
X9147Y-3346D03*
X6147Y-3346D03*
X25348Y-3346D03*
X22348Y-3346D03*
G54D26*
X1870Y-688D03*
X22834Y-688D03*
X22834Y-9547D03*
G54D27*
X25393Y-787D03*
X787Y-787D03*
G54D28*
X25118Y-8070D03*
G54D29*
X25118Y-9445D03*
X25118Y-6695D03*
X25118Y-9448D03*
X25118Y-6692D03*
M02*
