G04 (created by PCBNEW (2013-07-07 BZR 4022)-stable) date 3/11/2014 9:35:08 AM*
%MOIN*%
G04 Gerber Fmt 3.4, Leading zero omitted, Abs format*
%FSLAX34Y34*%
G01*
G70*
G90*
G04 APERTURE LIST*
%ADD10C,0.00590551*%
%ADD11R,0.075X0.075*%
%ADD12C,0.075*%
%ADD13C,0.0984252*%
%ADD14R,0.165X0.1049*%
%ADD15C,0.110236*%
%ADD16C,0.03*%
%ADD17C,0.035*%
%ADD18C,0.008*%
%ADD19C,0.016*%
G04 APERTURE END LIST*
G54D10*
G54D11*
X11664Y-9389D03*
G54D12*
X11564Y-8389D03*
X11664Y-7389D03*
X11564Y-6389D03*
X11664Y-5389D03*
X11555Y-4397D03*
G54D11*
X17519Y-877D03*
G54D12*
X17519Y-1877D03*
G54D11*
X13385Y-8358D03*
G54D12*
X13385Y-9358D03*
G54D11*
X10039Y-877D03*
G54D12*
X10039Y-1877D03*
G54D11*
X787Y-3633D03*
G54D12*
X787Y-4633D03*
G54D11*
X19078Y-787D03*
G54D12*
X20078Y-787D03*
X21078Y-787D03*
G54D11*
X23622Y-7070D03*
G54D12*
X23622Y-8070D03*
X23622Y-9070D03*
G54D13*
X9147Y-3346D03*
X6147Y-3346D03*
X25348Y-3346D03*
X22348Y-3346D03*
G54D14*
X25118Y-9448D03*
X25118Y-6692D03*
G54D15*
X25393Y-787D03*
X787Y-787D03*
G54D16*
X12992Y-6988D03*
X17618Y-3937D03*
X18208Y-6791D03*
X12598Y-8070D03*
X14566Y-4822D03*
X17322Y-7972D03*
X15748Y-7283D03*
X15944Y-5314D03*
X20472Y-8464D03*
X15452Y-2755D03*
X15748Y-2460D03*
X15157Y-3051D03*
X7677Y-2066D03*
X12204Y-4429D03*
X14862Y-5118D03*
X22047Y-5807D03*
X16338Y-5314D03*
X5708Y-9547D03*
X13681Y-5807D03*
X21456Y-5807D03*
X16633Y-5610D03*
X21948Y-5118D03*
X16633Y-5019D03*
X19881Y-5905D03*
X16929Y-5905D03*
X16929Y-4724D03*
X21358Y-4724D03*
X8858Y-9547D03*
X13976Y-5511D03*
X22440Y-4822D03*
X20669Y-3543D03*
X17618Y-6791D03*
X17125Y-3346D03*
X19586Y-2165D03*
X18799Y-2952D03*
X19586Y-2952D03*
X20374Y-2165D03*
X18799Y-2165D03*
X21751Y-8464D03*
X21161Y-8464D03*
X20866Y-6988D03*
X22440Y-6889D03*
X21751Y-6988D03*
X23228Y-2952D03*
X20472Y-2952D03*
X21062Y-2952D03*
X23720Y-2460D03*
X21948Y-2165D03*
X21161Y-2165D03*
X22736Y-2165D03*
X24015Y-3346D03*
X1870Y-8169D03*
X590Y-7480D03*
X1870Y-8858D03*
X590Y-9547D03*
X393Y-8267D03*
X393Y-8759D03*
X10433Y-9645D03*
X18799Y-9153D03*
X14763Y-787D03*
X12500Y-787D03*
X13188Y-3641D03*
X24901Y-5807D03*
X24901Y-4822D03*
X22440Y-9055D03*
X3543Y-787D03*
X3543Y-393D03*
X3543Y-4921D03*
X3543Y-5314D03*
X3543Y-4527D03*
X10433Y-5314D03*
X8543Y-6259D03*
X6023Y-6259D03*
X7283Y-6259D03*
X3503Y-6259D03*
X2874Y-6259D03*
X2244Y-6259D03*
X7283Y-8661D03*
X8543Y-8661D03*
X12598Y-6889D03*
X18897Y-6988D03*
X20669Y-5905D03*
G54D17*
X16437Y-9153D03*
G54D18*
X13385Y-7381D02*
X13385Y-8358D01*
X12992Y-6988D02*
X13385Y-7381D01*
X13385Y-8358D02*
X17330Y-8358D01*
X17330Y-8358D02*
X18208Y-7480D01*
X18208Y-7480D02*
X18208Y-6791D01*
X15649Y-5216D02*
X15649Y-5413D01*
X17913Y-6496D02*
X16732Y-6496D01*
X17913Y-6496D02*
X18208Y-6791D01*
X16929Y-3937D02*
X17618Y-3937D01*
X16732Y-6496D02*
X15649Y-5413D01*
X15649Y-5216D02*
X16929Y-3937D01*
X12345Y-8070D02*
X11664Y-7389D01*
X12598Y-8070D02*
X12345Y-8070D01*
G54D19*
X6147Y-3346D02*
X1574Y-3346D01*
X1287Y-3633D02*
X787Y-3633D01*
X1574Y-3346D02*
X1287Y-3633D01*
G54D18*
X14566Y-3346D02*
X14566Y-4822D01*
G54D19*
X6147Y-3346D02*
X9147Y-3346D01*
G54D18*
X9147Y-3346D02*
X14566Y-3346D01*
X14566Y-3346D02*
X15255Y-3346D01*
X15255Y-3346D02*
X17224Y-1377D01*
X17224Y-1377D02*
X18488Y-1377D01*
X18488Y-1377D02*
X19078Y-787D01*
X16633Y-7283D02*
X17322Y-7972D01*
X15748Y-7283D02*
X16633Y-7283D01*
X15944Y-5314D02*
X16830Y-6200D01*
X20472Y-6496D02*
X20472Y-8464D01*
X20177Y-6200D02*
X20472Y-6496D01*
X16830Y-6200D02*
X20177Y-6200D01*
X15452Y-2755D02*
X10917Y-2755D01*
X10917Y-2755D02*
X10039Y-1877D01*
X15748Y-2460D02*
X11622Y-2460D01*
X11622Y-2460D02*
X10039Y-877D01*
X15157Y-3051D02*
X10433Y-3051D01*
X9448Y-2066D02*
X7677Y-2066D01*
X10433Y-3051D02*
X9448Y-2066D01*
X12893Y-5118D02*
X12204Y-4429D01*
X14862Y-5118D02*
X12893Y-5118D01*
X21555Y-5314D02*
X16338Y-5314D01*
X21555Y-5314D02*
X22047Y-5807D01*
X5708Y-9547D02*
X6003Y-9842D01*
X9153Y-8800D02*
X11564Y-6389D01*
X9153Y-9645D02*
X9153Y-8800D01*
X8956Y-9842D02*
X9153Y-9645D01*
X6003Y-9842D02*
X8956Y-9842D01*
X13681Y-5807D02*
X12146Y-5807D01*
X12146Y-5807D02*
X11564Y-6389D01*
X21259Y-5610D02*
X16633Y-5610D01*
X21259Y-5610D02*
X21456Y-5807D01*
X21948Y-5118D02*
X21850Y-5019D01*
X21850Y-5019D02*
X16633Y-5019D01*
X16929Y-5905D02*
X19881Y-5905D01*
X20078Y-787D02*
X20078Y-3444D01*
X20078Y-3444D02*
X21358Y-4724D01*
X21358Y-4724D02*
X16929Y-4724D01*
X8858Y-9547D02*
X8858Y-8195D01*
X8858Y-8195D02*
X11664Y-5389D01*
X11664Y-5389D02*
X13854Y-5389D01*
X13854Y-5389D02*
X13976Y-5511D01*
X21948Y-4822D02*
X22440Y-4822D01*
X20669Y-3543D02*
X21948Y-4822D01*
X19586Y-2165D02*
X19586Y-2952D01*
G54D10*
G36*
X25944Y-8804D02*
X25168Y-8804D01*
X25138Y-8834D01*
X25138Y-9428D01*
X25145Y-9428D01*
X25145Y-9468D01*
X25138Y-9468D01*
X25138Y-9476D01*
X25098Y-9476D01*
X25098Y-9468D01*
X25098Y-9428D01*
X25098Y-8834D01*
X25098Y-7307D01*
X25098Y-6712D01*
X25098Y-6672D01*
X25098Y-6078D01*
X25068Y-6048D01*
X24269Y-6048D01*
X24225Y-6066D01*
X24191Y-6100D01*
X24173Y-6144D01*
X24173Y-6192D01*
X24173Y-6642D01*
X24203Y-6672D01*
X25098Y-6672D01*
X25098Y-6712D01*
X24203Y-6712D01*
X24173Y-6742D01*
X24173Y-7193D01*
X24173Y-7241D01*
X24191Y-7285D01*
X24225Y-7319D01*
X24269Y-7337D01*
X25068Y-7337D01*
X25098Y-7307D01*
X25098Y-8834D01*
X25068Y-8804D01*
X24269Y-8804D01*
X24225Y-8822D01*
X24191Y-8856D01*
X24173Y-8900D01*
X24173Y-8948D01*
X24173Y-9398D01*
X24203Y-9428D01*
X25098Y-9428D01*
X25098Y-9468D01*
X24203Y-9468D01*
X24173Y-9498D01*
X24173Y-9949D01*
X24173Y-9997D01*
X24173Y-9999D01*
X24117Y-9999D01*
X24117Y-7972D01*
X24117Y-7972D01*
X24117Y-7422D01*
X24117Y-6672D01*
X24098Y-6627D01*
X24065Y-6594D01*
X24021Y-6575D01*
X23973Y-6575D01*
X23223Y-6575D01*
X23179Y-6594D01*
X23145Y-6627D01*
X23127Y-6671D01*
X23127Y-6719D01*
X23127Y-7469D01*
X23145Y-7513D01*
X23178Y-7547D01*
X23223Y-7565D01*
X23270Y-7565D01*
X24020Y-7565D01*
X24064Y-7547D01*
X24098Y-7513D01*
X24117Y-7469D01*
X24117Y-7422D01*
X24117Y-7972D01*
X24041Y-7790D01*
X23902Y-7651D01*
X23720Y-7575D01*
X23524Y-7575D01*
X23342Y-7650D01*
X23202Y-7790D01*
X23127Y-7971D01*
X23126Y-8168D01*
X23202Y-8350D01*
X23341Y-8490D01*
X23523Y-8565D01*
X23720Y-8565D01*
X23902Y-8490D01*
X24041Y-8351D01*
X24116Y-8169D01*
X24117Y-7972D01*
X24117Y-9999D01*
X24117Y-9999D01*
X24117Y-9169D01*
X24117Y-8972D01*
X24041Y-8790D01*
X23971Y-8749D01*
X23943Y-8777D01*
X23943Y-8721D01*
X23902Y-8651D01*
X23720Y-8575D01*
X23523Y-8575D01*
X23341Y-8651D01*
X23300Y-8721D01*
X23622Y-9042D01*
X23943Y-8721D01*
X23943Y-8777D01*
X23650Y-9070D01*
X23971Y-9392D01*
X24041Y-9351D01*
X24117Y-9169D01*
X24117Y-9999D01*
X23943Y-9999D01*
X23943Y-9420D01*
X23622Y-9099D01*
X23593Y-9127D01*
X23593Y-9070D01*
X23272Y-8749D01*
X23202Y-8790D01*
X23127Y-8972D01*
X23127Y-9169D01*
X23202Y-9351D01*
X23272Y-9392D01*
X23593Y-9070D01*
X23593Y-9127D01*
X23300Y-9420D01*
X23341Y-9490D01*
X23523Y-9565D01*
X23720Y-9565D01*
X23902Y-9490D01*
X23943Y-9420D01*
X23943Y-9999D01*
X22961Y-9999D01*
X22961Y-3229D01*
X22869Y-3003D01*
X22864Y-2995D01*
X22782Y-2940D01*
X22754Y-2969D01*
X22754Y-2912D01*
X22698Y-2830D01*
X22474Y-2735D01*
X22231Y-2733D01*
X22005Y-2825D01*
X21997Y-2830D01*
X21942Y-2912D01*
X22348Y-3318D01*
X22754Y-2912D01*
X22754Y-2969D01*
X22376Y-3346D01*
X22782Y-3752D01*
X22864Y-3696D01*
X22959Y-3472D01*
X22961Y-3229D01*
X22961Y-9999D01*
X22754Y-9999D01*
X22754Y-3780D01*
X22348Y-3374D01*
X22320Y-3403D01*
X22320Y-3346D01*
X21914Y-2940D01*
X21832Y-2995D01*
X21737Y-3220D01*
X21735Y-3463D01*
X21827Y-3689D01*
X21832Y-3696D01*
X21914Y-3752D01*
X22320Y-3346D01*
X22320Y-3403D01*
X21942Y-3780D01*
X21997Y-3862D01*
X22222Y-3957D01*
X22465Y-3959D01*
X22691Y-3867D01*
X22698Y-3862D01*
X22754Y-3780D01*
X22754Y-9999D01*
X22710Y-9999D01*
X22710Y-4769D01*
X22669Y-4670D01*
X22594Y-4594D01*
X22494Y-4552D01*
X22387Y-4552D01*
X22288Y-4593D01*
X22219Y-4662D01*
X22015Y-4662D01*
X21573Y-4221D01*
X21573Y-885D01*
X21573Y-688D01*
X21498Y-507D01*
X21428Y-466D01*
X21399Y-494D01*
X21399Y-437D01*
X21358Y-367D01*
X21177Y-292D01*
X20980Y-292D01*
X20798Y-367D01*
X20757Y-437D01*
X21078Y-759D01*
X21399Y-437D01*
X21399Y-494D01*
X21107Y-787D01*
X21428Y-1108D01*
X21498Y-1067D01*
X21573Y-885D01*
X21573Y-4221D01*
X21399Y-4047D01*
X21399Y-1136D01*
X21078Y-815D01*
X21050Y-843D01*
X21050Y-787D01*
X20729Y-466D01*
X20658Y-507D01*
X20583Y-689D01*
X20583Y-886D01*
X20658Y-1067D01*
X20729Y-1108D01*
X21050Y-787D01*
X21050Y-843D01*
X20757Y-1136D01*
X20798Y-1207D01*
X20980Y-1282D01*
X21177Y-1282D01*
X21358Y-1207D01*
X21399Y-1136D01*
X21399Y-4047D01*
X20939Y-3586D01*
X20939Y-3489D01*
X20898Y-3390D01*
X20822Y-3314D01*
X20723Y-3273D01*
X20615Y-3273D01*
X20516Y-3314D01*
X20440Y-3390D01*
X20399Y-3489D01*
X20399Y-3539D01*
X20238Y-3378D01*
X20238Y-1256D01*
X20358Y-1207D01*
X20498Y-1068D01*
X20573Y-886D01*
X20573Y-689D01*
X20498Y-507D01*
X20359Y-368D01*
X20177Y-292D01*
X19980Y-292D01*
X19798Y-367D01*
X19659Y-506D01*
X19583Y-688D01*
X19583Y-885D01*
X19658Y-1067D01*
X19797Y-1206D01*
X19918Y-1256D01*
X19918Y-3444D01*
X19930Y-3506D01*
X19965Y-3558D01*
X20971Y-4564D01*
X17150Y-4564D01*
X17082Y-4495D01*
X16983Y-4454D01*
X16875Y-4454D01*
X16776Y-4495D01*
X16700Y-4571D01*
X16659Y-4670D01*
X16659Y-4749D01*
X16580Y-4749D01*
X16481Y-4790D01*
X16405Y-4866D01*
X16363Y-4965D01*
X16363Y-5044D01*
X16285Y-5044D01*
X16185Y-5085D01*
X16141Y-5129D01*
X16098Y-5086D01*
X16033Y-5059D01*
X16995Y-4097D01*
X17396Y-4097D01*
X17464Y-4165D01*
X17564Y-4206D01*
X17671Y-4207D01*
X17770Y-4166D01*
X17846Y-4090D01*
X17888Y-3990D01*
X17888Y-3883D01*
X17847Y-3784D01*
X17771Y-3708D01*
X17672Y-3667D01*
X17564Y-3666D01*
X17465Y-3707D01*
X17396Y-3777D01*
X16929Y-3777D01*
X16867Y-3789D01*
X16815Y-3823D01*
X15536Y-5103D01*
X15501Y-5155D01*
X15489Y-5216D01*
X15489Y-5413D01*
X15501Y-5474D01*
X15536Y-5526D01*
X16619Y-6609D01*
X16671Y-6643D01*
X16732Y-6656D01*
X17847Y-6656D01*
X17938Y-6747D01*
X17938Y-6844D01*
X17979Y-6944D01*
X18048Y-7013D01*
X18048Y-7414D01*
X17578Y-7884D01*
X17551Y-7819D01*
X17475Y-7743D01*
X17376Y-7702D01*
X17279Y-7702D01*
X16746Y-7170D01*
X16695Y-7135D01*
X16633Y-7123D01*
X15969Y-7123D01*
X15901Y-7054D01*
X15801Y-7013D01*
X15694Y-7013D01*
X15595Y-7054D01*
X15519Y-7130D01*
X15478Y-7229D01*
X15477Y-7336D01*
X15519Y-7436D01*
X15594Y-7512D01*
X15694Y-7553D01*
X15801Y-7553D01*
X15900Y-7512D01*
X15969Y-7443D01*
X16567Y-7443D01*
X17052Y-7928D01*
X17052Y-8025D01*
X17093Y-8125D01*
X17166Y-8198D01*
X13880Y-8198D01*
X13880Y-7959D01*
X13862Y-7915D01*
X13828Y-7881D01*
X13784Y-7863D01*
X13737Y-7863D01*
X13545Y-7863D01*
X13545Y-7381D01*
X13533Y-7320D01*
X13498Y-7268D01*
X13498Y-7268D01*
X13262Y-7031D01*
X13262Y-6934D01*
X13221Y-6835D01*
X13145Y-6759D01*
X13046Y-6718D01*
X12938Y-6718D01*
X12839Y-6759D01*
X12763Y-6835D01*
X12722Y-6934D01*
X12722Y-7041D01*
X12763Y-7140D01*
X12838Y-7216D01*
X12938Y-7258D01*
X13035Y-7258D01*
X13225Y-7448D01*
X13225Y-7863D01*
X12987Y-7863D01*
X12942Y-7881D01*
X12909Y-7915D01*
X12890Y-7959D01*
X12890Y-8007D01*
X12890Y-8757D01*
X12909Y-8801D01*
X12942Y-8834D01*
X12986Y-8853D01*
X13034Y-8853D01*
X13784Y-8853D01*
X13828Y-8835D01*
X13862Y-8801D01*
X13880Y-8757D01*
X13880Y-8709D01*
X13880Y-8518D01*
X17330Y-8518D01*
X17391Y-8506D01*
X17391Y-8506D01*
X17443Y-8471D01*
X18321Y-7593D01*
X18356Y-7541D01*
X18368Y-7480D01*
X18368Y-7013D01*
X18437Y-6944D01*
X18478Y-6845D01*
X18478Y-6737D01*
X18437Y-6638D01*
X18361Y-6562D01*
X18262Y-6521D01*
X18164Y-6521D01*
X18026Y-6382D01*
X17993Y-6360D01*
X20110Y-6360D01*
X20312Y-6562D01*
X20312Y-8242D01*
X20243Y-8311D01*
X20202Y-8410D01*
X20202Y-8518D01*
X20243Y-8617D01*
X20319Y-8693D01*
X20418Y-8734D01*
X20525Y-8734D01*
X20625Y-8693D01*
X20701Y-8617D01*
X20742Y-8518D01*
X20742Y-8411D01*
X20701Y-8311D01*
X20632Y-8242D01*
X20632Y-6496D01*
X20620Y-6434D01*
X20585Y-6382D01*
X20290Y-6087D01*
X20238Y-6052D01*
X20177Y-6040D01*
X20118Y-6040D01*
X20151Y-5959D01*
X20151Y-5852D01*
X20118Y-5770D01*
X21186Y-5770D01*
X21186Y-5860D01*
X21227Y-5959D01*
X21303Y-6035D01*
X21402Y-6077D01*
X21510Y-6077D01*
X21609Y-6036D01*
X21685Y-5960D01*
X21726Y-5861D01*
X21726Y-5753D01*
X21698Y-5684D01*
X21777Y-5763D01*
X21777Y-5860D01*
X21818Y-5959D01*
X21894Y-6035D01*
X21993Y-6077D01*
X22100Y-6077D01*
X22199Y-6036D01*
X22276Y-5960D01*
X22317Y-5861D01*
X22317Y-5753D01*
X22276Y-5654D01*
X22200Y-5578D01*
X22101Y-5537D01*
X22003Y-5537D01*
X21825Y-5359D01*
X21894Y-5388D01*
X22002Y-5388D01*
X22101Y-5347D01*
X22177Y-5271D01*
X22218Y-5172D01*
X22218Y-5064D01*
X22185Y-4982D01*
X22219Y-4982D01*
X22287Y-5051D01*
X22387Y-5092D01*
X22494Y-5092D01*
X22593Y-5051D01*
X22669Y-4975D01*
X22710Y-4876D01*
X22710Y-4769D01*
X22710Y-9999D01*
X13880Y-9999D01*
X13880Y-9456D01*
X13880Y-9259D01*
X13805Y-9078D01*
X13735Y-9037D01*
X13707Y-9065D01*
X13707Y-9008D01*
X13666Y-8938D01*
X13484Y-8863D01*
X13287Y-8863D01*
X13105Y-8938D01*
X13064Y-9008D01*
X13385Y-9329D01*
X13707Y-9008D01*
X13707Y-9065D01*
X13414Y-9358D01*
X13735Y-9679D01*
X13805Y-9638D01*
X13880Y-9456D01*
X13880Y-9999D01*
X13707Y-9999D01*
X13707Y-9707D01*
X13385Y-9386D01*
X13357Y-9414D01*
X13357Y-9358D01*
X13036Y-9037D01*
X12966Y-9078D01*
X12890Y-9259D01*
X12890Y-9456D01*
X12966Y-9638D01*
X13036Y-9679D01*
X13357Y-9358D01*
X13357Y-9414D01*
X13064Y-9707D01*
X13105Y-9778D01*
X13287Y-9853D01*
X13484Y-9853D01*
X13666Y-9778D01*
X13707Y-9707D01*
X13707Y-9999D01*
X12868Y-9999D01*
X12868Y-8017D01*
X12827Y-7918D01*
X12751Y-7842D01*
X12652Y-7800D01*
X12544Y-7800D01*
X12445Y-7841D01*
X12394Y-7893D01*
X12109Y-7608D01*
X12159Y-7488D01*
X12159Y-7291D01*
X12084Y-7109D01*
X11944Y-6970D01*
X11763Y-6894D01*
X11566Y-6894D01*
X11384Y-6969D01*
X11244Y-7109D01*
X11169Y-7290D01*
X11169Y-7487D01*
X11244Y-7669D01*
X11383Y-7809D01*
X11565Y-7884D01*
X11762Y-7884D01*
X11883Y-7834D01*
X12232Y-8184D01*
X12232Y-8184D01*
X12284Y-8218D01*
X12345Y-8230D01*
X12376Y-8230D01*
X12445Y-8299D01*
X12544Y-8340D01*
X12651Y-8340D01*
X12751Y-8299D01*
X12827Y-8224D01*
X12868Y-8124D01*
X12868Y-8017D01*
X12868Y-9999D01*
X12159Y-9999D01*
X12159Y-9788D01*
X12159Y-8990D01*
X12140Y-8946D01*
X12107Y-8913D01*
X12063Y-8894D01*
X12059Y-8894D01*
X12059Y-8291D01*
X11984Y-8109D01*
X11844Y-7970D01*
X11663Y-7894D01*
X11466Y-7894D01*
X11284Y-7969D01*
X11144Y-8109D01*
X11069Y-8290D01*
X11069Y-8487D01*
X11144Y-8669D01*
X11283Y-8809D01*
X11465Y-8884D01*
X11662Y-8884D01*
X11844Y-8809D01*
X11983Y-8670D01*
X12059Y-8488D01*
X12059Y-8291D01*
X12059Y-8894D01*
X12015Y-8894D01*
X11714Y-8894D01*
X11684Y-8924D01*
X11684Y-9369D01*
X12129Y-9369D01*
X12159Y-9339D01*
X12159Y-8990D01*
X12159Y-9788D01*
X12159Y-9439D01*
X12129Y-9409D01*
X11684Y-9409D01*
X11684Y-9854D01*
X11714Y-9884D01*
X12015Y-9884D01*
X12063Y-9884D01*
X12107Y-9866D01*
X12140Y-9832D01*
X12159Y-9788D01*
X12159Y-9999D01*
X11644Y-9999D01*
X11644Y-9854D01*
X11644Y-9409D01*
X11644Y-9369D01*
X11644Y-8924D01*
X11614Y-8894D01*
X11312Y-8894D01*
X11265Y-8894D01*
X11221Y-8913D01*
X11187Y-8946D01*
X11169Y-8990D01*
X11169Y-9339D01*
X11199Y-9369D01*
X11644Y-9369D01*
X11644Y-9409D01*
X11199Y-9409D01*
X11169Y-9439D01*
X11169Y-9788D01*
X11187Y-9832D01*
X11221Y-9866D01*
X11265Y-9884D01*
X11312Y-9884D01*
X11614Y-9884D01*
X11644Y-9854D01*
X11644Y-9999D01*
X8972Y-9999D01*
X9017Y-9990D01*
X9017Y-9990D01*
X9069Y-9955D01*
X9266Y-9758D01*
X9266Y-9758D01*
X9301Y-9706D01*
X9313Y-9645D01*
X9313Y-9645D01*
X9313Y-8866D01*
X11345Y-6834D01*
X11465Y-6884D01*
X11662Y-6884D01*
X11844Y-6809D01*
X11983Y-6670D01*
X12059Y-6488D01*
X12059Y-6291D01*
X12009Y-6170D01*
X12213Y-5967D01*
X13459Y-5967D01*
X13527Y-6035D01*
X13627Y-6077D01*
X13734Y-6077D01*
X13833Y-6036D01*
X13909Y-5960D01*
X13951Y-5861D01*
X13951Y-5781D01*
X14029Y-5781D01*
X14129Y-5740D01*
X14205Y-5664D01*
X14246Y-5565D01*
X14246Y-5458D01*
X14205Y-5359D01*
X14129Y-5283D01*
X14117Y-5278D01*
X14640Y-5278D01*
X14709Y-5346D01*
X14808Y-5388D01*
X14915Y-5388D01*
X15014Y-5347D01*
X15090Y-5271D01*
X15132Y-5172D01*
X15132Y-5064D01*
X15091Y-4965D01*
X15015Y-4889D01*
X14916Y-4848D01*
X14836Y-4848D01*
X14836Y-4769D01*
X14795Y-4670D01*
X14726Y-4600D01*
X14726Y-3506D01*
X15255Y-3506D01*
X15317Y-3494D01*
X15317Y-3494D01*
X15369Y-3459D01*
X17024Y-1803D01*
X17024Y-1975D01*
X17099Y-2157D01*
X17238Y-2297D01*
X17420Y-2372D01*
X17617Y-2373D01*
X17799Y-2297D01*
X17939Y-2158D01*
X18014Y-1976D01*
X18014Y-1779D01*
X17939Y-1597D01*
X17879Y-1537D01*
X18488Y-1537D01*
X18549Y-1525D01*
X18549Y-1525D01*
X18601Y-1491D01*
X18809Y-1282D01*
X19477Y-1282D01*
X19521Y-1264D01*
X19555Y-1230D01*
X19573Y-1186D01*
X19573Y-1138D01*
X19573Y-388D01*
X19555Y-344D01*
X19521Y-310D01*
X19477Y-292D01*
X19429Y-292D01*
X18679Y-292D01*
X18635Y-310D01*
X18602Y-344D01*
X18583Y-388D01*
X18583Y-436D01*
X18583Y-1056D01*
X18421Y-1217D01*
X18014Y-1217D01*
X18014Y-479D01*
X17996Y-435D01*
X17962Y-401D01*
X17918Y-382D01*
X17870Y-382D01*
X17120Y-382D01*
X17076Y-401D01*
X17043Y-434D01*
X17024Y-478D01*
X17024Y-526D01*
X17024Y-1276D01*
X17042Y-1320D01*
X17049Y-1327D01*
X16003Y-2372D01*
X15977Y-2307D01*
X15901Y-2231D01*
X15801Y-2190D01*
X15694Y-2190D01*
X15595Y-2231D01*
X15526Y-2300D01*
X11688Y-2300D01*
X10534Y-1146D01*
X10534Y-479D01*
X10516Y-435D01*
X10482Y-401D01*
X10438Y-382D01*
X10390Y-382D01*
X9640Y-382D01*
X9596Y-401D01*
X9562Y-434D01*
X9544Y-478D01*
X9544Y-526D01*
X9544Y-1276D01*
X9562Y-1320D01*
X9596Y-1354D01*
X9640Y-1372D01*
X9688Y-1372D01*
X10308Y-1372D01*
X11508Y-2573D01*
X11508Y-2573D01*
X11542Y-2595D01*
X10983Y-2595D01*
X10484Y-2096D01*
X10534Y-1976D01*
X10534Y-1779D01*
X10459Y-1597D01*
X10320Y-1458D01*
X10138Y-1383D01*
X9941Y-1382D01*
X9759Y-1458D01*
X9619Y-1597D01*
X9544Y-1779D01*
X9544Y-1942D01*
X9510Y-1919D01*
X9448Y-1906D01*
X7898Y-1906D01*
X7830Y-1838D01*
X7731Y-1796D01*
X7623Y-1796D01*
X7524Y-1837D01*
X7448Y-1913D01*
X7407Y-2012D01*
X7407Y-2120D01*
X7448Y-2219D01*
X7524Y-2295D01*
X7623Y-2336D01*
X7730Y-2336D01*
X7829Y-2295D01*
X7899Y-2226D01*
X9382Y-2226D01*
X10319Y-3164D01*
X10319Y-3164D01*
X10353Y-3186D01*
X9743Y-3186D01*
X9666Y-3000D01*
X9494Y-2827D01*
X9269Y-2734D01*
X9026Y-2734D01*
X8801Y-2827D01*
X8629Y-2999D01*
X8567Y-3146D01*
X6727Y-3146D01*
X6666Y-3000D01*
X6494Y-2827D01*
X6269Y-2734D01*
X6026Y-2734D01*
X5801Y-2827D01*
X5629Y-2999D01*
X5567Y-3146D01*
X1574Y-3146D01*
X1498Y-3161D01*
X1476Y-3176D01*
X1433Y-3205D01*
X1282Y-3355D01*
X1282Y-3235D01*
X1264Y-3190D01*
X1230Y-3157D01*
X1186Y-3138D01*
X1138Y-3138D01*
X388Y-3138D01*
X344Y-3157D01*
X310Y-3190D01*
X292Y-3234D01*
X292Y-3282D01*
X292Y-4032D01*
X310Y-4076D01*
X344Y-4110D01*
X388Y-4128D01*
X436Y-4128D01*
X1186Y-4128D01*
X1230Y-4110D01*
X1264Y-4076D01*
X1282Y-4032D01*
X1282Y-3985D01*
X1282Y-3833D01*
X1287Y-3833D01*
X1363Y-3818D01*
X1428Y-3775D01*
X1657Y-3546D01*
X5567Y-3546D01*
X5628Y-3692D01*
X5800Y-3865D01*
X6025Y-3958D01*
X6268Y-3958D01*
X6493Y-3865D01*
X6666Y-3693D01*
X6727Y-3546D01*
X8567Y-3546D01*
X8628Y-3692D01*
X8800Y-3865D01*
X9025Y-3958D01*
X9268Y-3958D01*
X9493Y-3865D01*
X9666Y-3693D01*
X9744Y-3506D01*
X14406Y-3506D01*
X14406Y-4601D01*
X14338Y-4669D01*
X14296Y-4768D01*
X14296Y-4876D01*
X14330Y-4958D01*
X12959Y-4958D01*
X12474Y-4472D01*
X12474Y-4375D01*
X12433Y-4276D01*
X12357Y-4200D01*
X12258Y-4159D01*
X12151Y-4159D01*
X12051Y-4200D01*
X12021Y-4230D01*
X11975Y-4117D01*
X11835Y-3978D01*
X11654Y-3902D01*
X11457Y-3902D01*
X11275Y-3977D01*
X11135Y-4116D01*
X11060Y-4298D01*
X11060Y-4495D01*
X11135Y-4677D01*
X11274Y-4817D01*
X11456Y-4892D01*
X11653Y-4892D01*
X11835Y-4817D01*
X11974Y-4678D01*
X12003Y-4609D01*
X12051Y-4657D01*
X12150Y-4699D01*
X12248Y-4699D01*
X12779Y-5229D01*
X12133Y-5229D01*
X12084Y-5109D01*
X11944Y-4970D01*
X11763Y-4894D01*
X11566Y-4894D01*
X11384Y-4969D01*
X11244Y-5109D01*
X11169Y-5290D01*
X11169Y-5487D01*
X11219Y-5608D01*
X8745Y-8082D01*
X8710Y-8134D01*
X8698Y-8195D01*
X8698Y-9325D01*
X8629Y-9394D01*
X8588Y-9493D01*
X8588Y-9600D01*
X8622Y-9682D01*
X6070Y-9682D01*
X5978Y-9590D01*
X5978Y-9493D01*
X5937Y-9394D01*
X5861Y-9318D01*
X5762Y-9277D01*
X5655Y-9277D01*
X5555Y-9318D01*
X5479Y-9394D01*
X5438Y-9493D01*
X5438Y-9600D01*
X5479Y-9699D01*
X5555Y-9776D01*
X5654Y-9817D01*
X5752Y-9817D01*
X5890Y-9955D01*
X5942Y-9990D01*
X5988Y-9999D01*
X1282Y-9999D01*
X1282Y-4732D01*
X1282Y-4535D01*
X1207Y-4353D01*
X1136Y-4312D01*
X1108Y-4340D01*
X1108Y-4284D01*
X1067Y-4214D01*
X885Y-4138D01*
X688Y-4138D01*
X507Y-4214D01*
X466Y-4284D01*
X787Y-4605D01*
X1108Y-4284D01*
X1108Y-4340D01*
X815Y-4633D01*
X1136Y-4955D01*
X1207Y-4914D01*
X1282Y-4732D01*
X1282Y-9999D01*
X1108Y-9999D01*
X1108Y-4983D01*
X787Y-4662D01*
X759Y-4690D01*
X759Y-4633D01*
X437Y-4312D01*
X367Y-4353D01*
X292Y-4535D01*
X292Y-4732D01*
X367Y-4914D01*
X437Y-4955D01*
X759Y-4633D01*
X759Y-4690D01*
X466Y-4983D01*
X507Y-5053D01*
X689Y-5128D01*
X886Y-5128D01*
X1067Y-5053D01*
X1108Y-4983D01*
X1108Y-9999D01*
X236Y-9999D01*
X236Y-1185D01*
X406Y-1356D01*
X653Y-1458D01*
X920Y-1458D01*
X1167Y-1356D01*
X1356Y-1168D01*
X1458Y-921D01*
X1458Y-654D01*
X1356Y-407D01*
X1186Y-236D01*
X24995Y-236D01*
X24825Y-406D01*
X24722Y-653D01*
X24722Y-920D01*
X24824Y-1167D01*
X25013Y-1356D01*
X25259Y-1458D01*
X25526Y-1458D01*
X25773Y-1356D01*
X25944Y-1186D01*
X25944Y-3186D01*
X25869Y-3003D01*
X25864Y-2995D01*
X25782Y-2940D01*
X25754Y-2969D01*
X25754Y-2912D01*
X25698Y-2830D01*
X25474Y-2735D01*
X25231Y-2733D01*
X25005Y-2825D01*
X24997Y-2830D01*
X24942Y-2912D01*
X25348Y-3318D01*
X25754Y-2912D01*
X25754Y-2969D01*
X25376Y-3346D01*
X25782Y-3752D01*
X25864Y-3696D01*
X25944Y-3509D01*
X25944Y-6048D01*
X25754Y-6048D01*
X25754Y-3780D01*
X25348Y-3374D01*
X25320Y-3403D01*
X25320Y-3346D01*
X24914Y-2940D01*
X24832Y-2995D01*
X24737Y-3220D01*
X24735Y-3463D01*
X24827Y-3689D01*
X24832Y-3696D01*
X24914Y-3752D01*
X25320Y-3346D01*
X25320Y-3403D01*
X24942Y-3780D01*
X24997Y-3862D01*
X25222Y-3957D01*
X25465Y-3959D01*
X25691Y-3867D01*
X25698Y-3862D01*
X25754Y-3780D01*
X25754Y-6048D01*
X25168Y-6048D01*
X25138Y-6078D01*
X25138Y-6672D01*
X25145Y-6672D01*
X25145Y-6712D01*
X25138Y-6712D01*
X25138Y-7307D01*
X25168Y-7337D01*
X25944Y-7337D01*
X25944Y-8804D01*
X25944Y-8804D01*
G37*
G54D18*
X25944Y-8804D02*
X25168Y-8804D01*
X25138Y-8834D01*
X25138Y-9428D01*
X25145Y-9428D01*
X25145Y-9468D01*
X25138Y-9468D01*
X25138Y-9476D01*
X25098Y-9476D01*
X25098Y-9468D01*
X25098Y-9428D01*
X25098Y-8834D01*
X25098Y-7307D01*
X25098Y-6712D01*
X25098Y-6672D01*
X25098Y-6078D01*
X25068Y-6048D01*
X24269Y-6048D01*
X24225Y-6066D01*
X24191Y-6100D01*
X24173Y-6144D01*
X24173Y-6192D01*
X24173Y-6642D01*
X24203Y-6672D01*
X25098Y-6672D01*
X25098Y-6712D01*
X24203Y-6712D01*
X24173Y-6742D01*
X24173Y-7193D01*
X24173Y-7241D01*
X24191Y-7285D01*
X24225Y-7319D01*
X24269Y-7337D01*
X25068Y-7337D01*
X25098Y-7307D01*
X25098Y-8834D01*
X25068Y-8804D01*
X24269Y-8804D01*
X24225Y-8822D01*
X24191Y-8856D01*
X24173Y-8900D01*
X24173Y-8948D01*
X24173Y-9398D01*
X24203Y-9428D01*
X25098Y-9428D01*
X25098Y-9468D01*
X24203Y-9468D01*
X24173Y-9498D01*
X24173Y-9949D01*
X24173Y-9997D01*
X24173Y-9999D01*
X24117Y-9999D01*
X24117Y-7972D01*
X24117Y-7972D01*
X24117Y-7422D01*
X24117Y-6672D01*
X24098Y-6627D01*
X24065Y-6594D01*
X24021Y-6575D01*
X23973Y-6575D01*
X23223Y-6575D01*
X23179Y-6594D01*
X23145Y-6627D01*
X23127Y-6671D01*
X23127Y-6719D01*
X23127Y-7469D01*
X23145Y-7513D01*
X23178Y-7547D01*
X23223Y-7565D01*
X23270Y-7565D01*
X24020Y-7565D01*
X24064Y-7547D01*
X24098Y-7513D01*
X24117Y-7469D01*
X24117Y-7422D01*
X24117Y-7972D01*
X24041Y-7790D01*
X23902Y-7651D01*
X23720Y-7575D01*
X23524Y-7575D01*
X23342Y-7650D01*
X23202Y-7790D01*
X23127Y-7971D01*
X23126Y-8168D01*
X23202Y-8350D01*
X23341Y-8490D01*
X23523Y-8565D01*
X23720Y-8565D01*
X23902Y-8490D01*
X24041Y-8351D01*
X24116Y-8169D01*
X24117Y-7972D01*
X24117Y-9999D01*
X24117Y-9999D01*
X24117Y-9169D01*
X24117Y-8972D01*
X24041Y-8790D01*
X23971Y-8749D01*
X23943Y-8777D01*
X23943Y-8721D01*
X23902Y-8651D01*
X23720Y-8575D01*
X23523Y-8575D01*
X23341Y-8651D01*
X23300Y-8721D01*
X23622Y-9042D01*
X23943Y-8721D01*
X23943Y-8777D01*
X23650Y-9070D01*
X23971Y-9392D01*
X24041Y-9351D01*
X24117Y-9169D01*
X24117Y-9999D01*
X23943Y-9999D01*
X23943Y-9420D01*
X23622Y-9099D01*
X23593Y-9127D01*
X23593Y-9070D01*
X23272Y-8749D01*
X23202Y-8790D01*
X23127Y-8972D01*
X23127Y-9169D01*
X23202Y-9351D01*
X23272Y-9392D01*
X23593Y-9070D01*
X23593Y-9127D01*
X23300Y-9420D01*
X23341Y-9490D01*
X23523Y-9565D01*
X23720Y-9565D01*
X23902Y-9490D01*
X23943Y-9420D01*
X23943Y-9999D01*
X22961Y-9999D01*
X22961Y-3229D01*
X22869Y-3003D01*
X22864Y-2995D01*
X22782Y-2940D01*
X22754Y-2969D01*
X22754Y-2912D01*
X22698Y-2830D01*
X22474Y-2735D01*
X22231Y-2733D01*
X22005Y-2825D01*
X21997Y-2830D01*
X21942Y-2912D01*
X22348Y-3318D01*
X22754Y-2912D01*
X22754Y-2969D01*
X22376Y-3346D01*
X22782Y-3752D01*
X22864Y-3696D01*
X22959Y-3472D01*
X22961Y-3229D01*
X22961Y-9999D01*
X22754Y-9999D01*
X22754Y-3780D01*
X22348Y-3374D01*
X22320Y-3403D01*
X22320Y-3346D01*
X21914Y-2940D01*
X21832Y-2995D01*
X21737Y-3220D01*
X21735Y-3463D01*
X21827Y-3689D01*
X21832Y-3696D01*
X21914Y-3752D01*
X22320Y-3346D01*
X22320Y-3403D01*
X21942Y-3780D01*
X21997Y-3862D01*
X22222Y-3957D01*
X22465Y-3959D01*
X22691Y-3867D01*
X22698Y-3862D01*
X22754Y-3780D01*
X22754Y-9999D01*
X22710Y-9999D01*
X22710Y-4769D01*
X22669Y-4670D01*
X22594Y-4594D01*
X22494Y-4552D01*
X22387Y-4552D01*
X22288Y-4593D01*
X22219Y-4662D01*
X22015Y-4662D01*
X21573Y-4221D01*
X21573Y-885D01*
X21573Y-688D01*
X21498Y-507D01*
X21428Y-466D01*
X21399Y-494D01*
X21399Y-437D01*
X21358Y-367D01*
X21177Y-292D01*
X20980Y-292D01*
X20798Y-367D01*
X20757Y-437D01*
X21078Y-759D01*
X21399Y-437D01*
X21399Y-494D01*
X21107Y-787D01*
X21428Y-1108D01*
X21498Y-1067D01*
X21573Y-885D01*
X21573Y-4221D01*
X21399Y-4047D01*
X21399Y-1136D01*
X21078Y-815D01*
X21050Y-843D01*
X21050Y-787D01*
X20729Y-466D01*
X20658Y-507D01*
X20583Y-689D01*
X20583Y-886D01*
X20658Y-1067D01*
X20729Y-1108D01*
X21050Y-787D01*
X21050Y-843D01*
X20757Y-1136D01*
X20798Y-1207D01*
X20980Y-1282D01*
X21177Y-1282D01*
X21358Y-1207D01*
X21399Y-1136D01*
X21399Y-4047D01*
X20939Y-3586D01*
X20939Y-3489D01*
X20898Y-3390D01*
X20822Y-3314D01*
X20723Y-3273D01*
X20615Y-3273D01*
X20516Y-3314D01*
X20440Y-3390D01*
X20399Y-3489D01*
X20399Y-3539D01*
X20238Y-3378D01*
X20238Y-1256D01*
X20358Y-1207D01*
X20498Y-1068D01*
X20573Y-886D01*
X20573Y-689D01*
X20498Y-507D01*
X20359Y-368D01*
X20177Y-292D01*
X19980Y-292D01*
X19798Y-367D01*
X19659Y-506D01*
X19583Y-688D01*
X19583Y-885D01*
X19658Y-1067D01*
X19797Y-1206D01*
X19918Y-1256D01*
X19918Y-3444D01*
X19930Y-3506D01*
X19965Y-3558D01*
X20971Y-4564D01*
X17150Y-4564D01*
X17082Y-4495D01*
X16983Y-4454D01*
X16875Y-4454D01*
X16776Y-4495D01*
X16700Y-4571D01*
X16659Y-4670D01*
X16659Y-4749D01*
X16580Y-4749D01*
X16481Y-4790D01*
X16405Y-4866D01*
X16363Y-4965D01*
X16363Y-5044D01*
X16285Y-5044D01*
X16185Y-5085D01*
X16141Y-5129D01*
X16098Y-5086D01*
X16033Y-5059D01*
X16995Y-4097D01*
X17396Y-4097D01*
X17464Y-4165D01*
X17564Y-4206D01*
X17671Y-4207D01*
X17770Y-4166D01*
X17846Y-4090D01*
X17888Y-3990D01*
X17888Y-3883D01*
X17847Y-3784D01*
X17771Y-3708D01*
X17672Y-3667D01*
X17564Y-3666D01*
X17465Y-3707D01*
X17396Y-3777D01*
X16929Y-3777D01*
X16867Y-3789D01*
X16815Y-3823D01*
X15536Y-5103D01*
X15501Y-5155D01*
X15489Y-5216D01*
X15489Y-5413D01*
X15501Y-5474D01*
X15536Y-5526D01*
X16619Y-6609D01*
X16671Y-6643D01*
X16732Y-6656D01*
X17847Y-6656D01*
X17938Y-6747D01*
X17938Y-6844D01*
X17979Y-6944D01*
X18048Y-7013D01*
X18048Y-7414D01*
X17578Y-7884D01*
X17551Y-7819D01*
X17475Y-7743D01*
X17376Y-7702D01*
X17279Y-7702D01*
X16746Y-7170D01*
X16695Y-7135D01*
X16633Y-7123D01*
X15969Y-7123D01*
X15901Y-7054D01*
X15801Y-7013D01*
X15694Y-7013D01*
X15595Y-7054D01*
X15519Y-7130D01*
X15478Y-7229D01*
X15477Y-7336D01*
X15519Y-7436D01*
X15594Y-7512D01*
X15694Y-7553D01*
X15801Y-7553D01*
X15900Y-7512D01*
X15969Y-7443D01*
X16567Y-7443D01*
X17052Y-7928D01*
X17052Y-8025D01*
X17093Y-8125D01*
X17166Y-8198D01*
X13880Y-8198D01*
X13880Y-7959D01*
X13862Y-7915D01*
X13828Y-7881D01*
X13784Y-7863D01*
X13737Y-7863D01*
X13545Y-7863D01*
X13545Y-7381D01*
X13533Y-7320D01*
X13498Y-7268D01*
X13498Y-7268D01*
X13262Y-7031D01*
X13262Y-6934D01*
X13221Y-6835D01*
X13145Y-6759D01*
X13046Y-6718D01*
X12938Y-6718D01*
X12839Y-6759D01*
X12763Y-6835D01*
X12722Y-6934D01*
X12722Y-7041D01*
X12763Y-7140D01*
X12838Y-7216D01*
X12938Y-7258D01*
X13035Y-7258D01*
X13225Y-7448D01*
X13225Y-7863D01*
X12987Y-7863D01*
X12942Y-7881D01*
X12909Y-7915D01*
X12890Y-7959D01*
X12890Y-8007D01*
X12890Y-8757D01*
X12909Y-8801D01*
X12942Y-8834D01*
X12986Y-8853D01*
X13034Y-8853D01*
X13784Y-8853D01*
X13828Y-8835D01*
X13862Y-8801D01*
X13880Y-8757D01*
X13880Y-8709D01*
X13880Y-8518D01*
X17330Y-8518D01*
X17391Y-8506D01*
X17391Y-8506D01*
X17443Y-8471D01*
X18321Y-7593D01*
X18356Y-7541D01*
X18368Y-7480D01*
X18368Y-7013D01*
X18437Y-6944D01*
X18478Y-6845D01*
X18478Y-6737D01*
X18437Y-6638D01*
X18361Y-6562D01*
X18262Y-6521D01*
X18164Y-6521D01*
X18026Y-6382D01*
X17993Y-6360D01*
X20110Y-6360D01*
X20312Y-6562D01*
X20312Y-8242D01*
X20243Y-8311D01*
X20202Y-8410D01*
X20202Y-8518D01*
X20243Y-8617D01*
X20319Y-8693D01*
X20418Y-8734D01*
X20525Y-8734D01*
X20625Y-8693D01*
X20701Y-8617D01*
X20742Y-8518D01*
X20742Y-8411D01*
X20701Y-8311D01*
X20632Y-8242D01*
X20632Y-6496D01*
X20620Y-6434D01*
X20585Y-6382D01*
X20290Y-6087D01*
X20238Y-6052D01*
X20177Y-6040D01*
X20118Y-6040D01*
X20151Y-5959D01*
X20151Y-5852D01*
X20118Y-5770D01*
X21186Y-5770D01*
X21186Y-5860D01*
X21227Y-5959D01*
X21303Y-6035D01*
X21402Y-6077D01*
X21510Y-6077D01*
X21609Y-6036D01*
X21685Y-5960D01*
X21726Y-5861D01*
X21726Y-5753D01*
X21698Y-5684D01*
X21777Y-5763D01*
X21777Y-5860D01*
X21818Y-5959D01*
X21894Y-6035D01*
X21993Y-6077D01*
X22100Y-6077D01*
X22199Y-6036D01*
X22276Y-5960D01*
X22317Y-5861D01*
X22317Y-5753D01*
X22276Y-5654D01*
X22200Y-5578D01*
X22101Y-5537D01*
X22003Y-5537D01*
X21825Y-5359D01*
X21894Y-5388D01*
X22002Y-5388D01*
X22101Y-5347D01*
X22177Y-5271D01*
X22218Y-5172D01*
X22218Y-5064D01*
X22185Y-4982D01*
X22219Y-4982D01*
X22287Y-5051D01*
X22387Y-5092D01*
X22494Y-5092D01*
X22593Y-5051D01*
X22669Y-4975D01*
X22710Y-4876D01*
X22710Y-4769D01*
X22710Y-9999D01*
X13880Y-9999D01*
X13880Y-9456D01*
X13880Y-9259D01*
X13805Y-9078D01*
X13735Y-9037D01*
X13707Y-9065D01*
X13707Y-9008D01*
X13666Y-8938D01*
X13484Y-8863D01*
X13287Y-8863D01*
X13105Y-8938D01*
X13064Y-9008D01*
X13385Y-9329D01*
X13707Y-9008D01*
X13707Y-9065D01*
X13414Y-9358D01*
X13735Y-9679D01*
X13805Y-9638D01*
X13880Y-9456D01*
X13880Y-9999D01*
X13707Y-9999D01*
X13707Y-9707D01*
X13385Y-9386D01*
X13357Y-9414D01*
X13357Y-9358D01*
X13036Y-9037D01*
X12966Y-9078D01*
X12890Y-9259D01*
X12890Y-9456D01*
X12966Y-9638D01*
X13036Y-9679D01*
X13357Y-9358D01*
X13357Y-9414D01*
X13064Y-9707D01*
X13105Y-9778D01*
X13287Y-9853D01*
X13484Y-9853D01*
X13666Y-9778D01*
X13707Y-9707D01*
X13707Y-9999D01*
X12868Y-9999D01*
X12868Y-8017D01*
X12827Y-7918D01*
X12751Y-7842D01*
X12652Y-7800D01*
X12544Y-7800D01*
X12445Y-7841D01*
X12394Y-7893D01*
X12109Y-7608D01*
X12159Y-7488D01*
X12159Y-7291D01*
X12084Y-7109D01*
X11944Y-6970D01*
X11763Y-6894D01*
X11566Y-6894D01*
X11384Y-6969D01*
X11244Y-7109D01*
X11169Y-7290D01*
X11169Y-7487D01*
X11244Y-7669D01*
X11383Y-7809D01*
X11565Y-7884D01*
X11762Y-7884D01*
X11883Y-7834D01*
X12232Y-8184D01*
X12232Y-8184D01*
X12284Y-8218D01*
X12345Y-8230D01*
X12376Y-8230D01*
X12445Y-8299D01*
X12544Y-8340D01*
X12651Y-8340D01*
X12751Y-8299D01*
X12827Y-8224D01*
X12868Y-8124D01*
X12868Y-8017D01*
X12868Y-9999D01*
X12159Y-9999D01*
X12159Y-9788D01*
X12159Y-8990D01*
X12140Y-8946D01*
X12107Y-8913D01*
X12063Y-8894D01*
X12059Y-8894D01*
X12059Y-8291D01*
X11984Y-8109D01*
X11844Y-7970D01*
X11663Y-7894D01*
X11466Y-7894D01*
X11284Y-7969D01*
X11144Y-8109D01*
X11069Y-8290D01*
X11069Y-8487D01*
X11144Y-8669D01*
X11283Y-8809D01*
X11465Y-8884D01*
X11662Y-8884D01*
X11844Y-8809D01*
X11983Y-8670D01*
X12059Y-8488D01*
X12059Y-8291D01*
X12059Y-8894D01*
X12015Y-8894D01*
X11714Y-8894D01*
X11684Y-8924D01*
X11684Y-9369D01*
X12129Y-9369D01*
X12159Y-9339D01*
X12159Y-8990D01*
X12159Y-9788D01*
X12159Y-9439D01*
X12129Y-9409D01*
X11684Y-9409D01*
X11684Y-9854D01*
X11714Y-9884D01*
X12015Y-9884D01*
X12063Y-9884D01*
X12107Y-9866D01*
X12140Y-9832D01*
X12159Y-9788D01*
X12159Y-9999D01*
X11644Y-9999D01*
X11644Y-9854D01*
X11644Y-9409D01*
X11644Y-9369D01*
X11644Y-8924D01*
X11614Y-8894D01*
X11312Y-8894D01*
X11265Y-8894D01*
X11221Y-8913D01*
X11187Y-8946D01*
X11169Y-8990D01*
X11169Y-9339D01*
X11199Y-9369D01*
X11644Y-9369D01*
X11644Y-9409D01*
X11199Y-9409D01*
X11169Y-9439D01*
X11169Y-9788D01*
X11187Y-9832D01*
X11221Y-9866D01*
X11265Y-9884D01*
X11312Y-9884D01*
X11614Y-9884D01*
X11644Y-9854D01*
X11644Y-9999D01*
X8972Y-9999D01*
X9017Y-9990D01*
X9017Y-9990D01*
X9069Y-9955D01*
X9266Y-9758D01*
X9266Y-9758D01*
X9301Y-9706D01*
X9313Y-9645D01*
X9313Y-9645D01*
X9313Y-8866D01*
X11345Y-6834D01*
X11465Y-6884D01*
X11662Y-6884D01*
X11844Y-6809D01*
X11983Y-6670D01*
X12059Y-6488D01*
X12059Y-6291D01*
X12009Y-6170D01*
X12213Y-5967D01*
X13459Y-5967D01*
X13527Y-6035D01*
X13627Y-6077D01*
X13734Y-6077D01*
X13833Y-6036D01*
X13909Y-5960D01*
X13951Y-5861D01*
X13951Y-5781D01*
X14029Y-5781D01*
X14129Y-5740D01*
X14205Y-5664D01*
X14246Y-5565D01*
X14246Y-5458D01*
X14205Y-5359D01*
X14129Y-5283D01*
X14117Y-5278D01*
X14640Y-5278D01*
X14709Y-5346D01*
X14808Y-5388D01*
X14915Y-5388D01*
X15014Y-5347D01*
X15090Y-5271D01*
X15132Y-5172D01*
X15132Y-5064D01*
X15091Y-4965D01*
X15015Y-4889D01*
X14916Y-4848D01*
X14836Y-4848D01*
X14836Y-4769D01*
X14795Y-4670D01*
X14726Y-4600D01*
X14726Y-3506D01*
X15255Y-3506D01*
X15317Y-3494D01*
X15317Y-3494D01*
X15369Y-3459D01*
X17024Y-1803D01*
X17024Y-1975D01*
X17099Y-2157D01*
X17238Y-2297D01*
X17420Y-2372D01*
X17617Y-2373D01*
X17799Y-2297D01*
X17939Y-2158D01*
X18014Y-1976D01*
X18014Y-1779D01*
X17939Y-1597D01*
X17879Y-1537D01*
X18488Y-1537D01*
X18549Y-1525D01*
X18549Y-1525D01*
X18601Y-1491D01*
X18809Y-1282D01*
X19477Y-1282D01*
X19521Y-1264D01*
X19555Y-1230D01*
X19573Y-1186D01*
X19573Y-1138D01*
X19573Y-388D01*
X19555Y-344D01*
X19521Y-310D01*
X19477Y-292D01*
X19429Y-292D01*
X18679Y-292D01*
X18635Y-310D01*
X18602Y-344D01*
X18583Y-388D01*
X18583Y-436D01*
X18583Y-1056D01*
X18421Y-1217D01*
X18014Y-1217D01*
X18014Y-479D01*
X17996Y-435D01*
X17962Y-401D01*
X17918Y-382D01*
X17870Y-382D01*
X17120Y-382D01*
X17076Y-401D01*
X17043Y-434D01*
X17024Y-478D01*
X17024Y-526D01*
X17024Y-1276D01*
X17042Y-1320D01*
X17049Y-1327D01*
X16003Y-2372D01*
X15977Y-2307D01*
X15901Y-2231D01*
X15801Y-2190D01*
X15694Y-2190D01*
X15595Y-2231D01*
X15526Y-2300D01*
X11688Y-2300D01*
X10534Y-1146D01*
X10534Y-479D01*
X10516Y-435D01*
X10482Y-401D01*
X10438Y-382D01*
X10390Y-382D01*
X9640Y-382D01*
X9596Y-401D01*
X9562Y-434D01*
X9544Y-478D01*
X9544Y-526D01*
X9544Y-1276D01*
X9562Y-1320D01*
X9596Y-1354D01*
X9640Y-1372D01*
X9688Y-1372D01*
X10308Y-1372D01*
X11508Y-2573D01*
X11508Y-2573D01*
X11542Y-2595D01*
X10983Y-2595D01*
X10484Y-2096D01*
X10534Y-1976D01*
X10534Y-1779D01*
X10459Y-1597D01*
X10320Y-1458D01*
X10138Y-1383D01*
X9941Y-1382D01*
X9759Y-1458D01*
X9619Y-1597D01*
X9544Y-1779D01*
X9544Y-1942D01*
X9510Y-1919D01*
X9448Y-1906D01*
X7898Y-1906D01*
X7830Y-1838D01*
X7731Y-1796D01*
X7623Y-1796D01*
X7524Y-1837D01*
X7448Y-1913D01*
X7407Y-2012D01*
X7407Y-2120D01*
X7448Y-2219D01*
X7524Y-2295D01*
X7623Y-2336D01*
X7730Y-2336D01*
X7829Y-2295D01*
X7899Y-2226D01*
X9382Y-2226D01*
X10319Y-3164D01*
X10319Y-3164D01*
X10353Y-3186D01*
X9743Y-3186D01*
X9666Y-3000D01*
X9494Y-2827D01*
X9269Y-2734D01*
X9026Y-2734D01*
X8801Y-2827D01*
X8629Y-2999D01*
X8567Y-3146D01*
X6727Y-3146D01*
X6666Y-3000D01*
X6494Y-2827D01*
X6269Y-2734D01*
X6026Y-2734D01*
X5801Y-2827D01*
X5629Y-2999D01*
X5567Y-3146D01*
X1574Y-3146D01*
X1498Y-3161D01*
X1476Y-3176D01*
X1433Y-3205D01*
X1282Y-3355D01*
X1282Y-3235D01*
X1264Y-3190D01*
X1230Y-3157D01*
X1186Y-3138D01*
X1138Y-3138D01*
X388Y-3138D01*
X344Y-3157D01*
X310Y-3190D01*
X292Y-3234D01*
X292Y-3282D01*
X292Y-4032D01*
X310Y-4076D01*
X344Y-4110D01*
X388Y-4128D01*
X436Y-4128D01*
X1186Y-4128D01*
X1230Y-4110D01*
X1264Y-4076D01*
X1282Y-4032D01*
X1282Y-3985D01*
X1282Y-3833D01*
X1287Y-3833D01*
X1363Y-3818D01*
X1428Y-3775D01*
X1657Y-3546D01*
X5567Y-3546D01*
X5628Y-3692D01*
X5800Y-3865D01*
X6025Y-3958D01*
X6268Y-3958D01*
X6493Y-3865D01*
X6666Y-3693D01*
X6727Y-3546D01*
X8567Y-3546D01*
X8628Y-3692D01*
X8800Y-3865D01*
X9025Y-3958D01*
X9268Y-3958D01*
X9493Y-3865D01*
X9666Y-3693D01*
X9744Y-3506D01*
X14406Y-3506D01*
X14406Y-4601D01*
X14338Y-4669D01*
X14296Y-4768D01*
X14296Y-4876D01*
X14330Y-4958D01*
X12959Y-4958D01*
X12474Y-4472D01*
X12474Y-4375D01*
X12433Y-4276D01*
X12357Y-4200D01*
X12258Y-4159D01*
X12151Y-4159D01*
X12051Y-4200D01*
X12021Y-4230D01*
X11975Y-4117D01*
X11835Y-3978D01*
X11654Y-3902D01*
X11457Y-3902D01*
X11275Y-3977D01*
X11135Y-4116D01*
X11060Y-4298D01*
X11060Y-4495D01*
X11135Y-4677D01*
X11274Y-4817D01*
X11456Y-4892D01*
X11653Y-4892D01*
X11835Y-4817D01*
X11974Y-4678D01*
X12003Y-4609D01*
X12051Y-4657D01*
X12150Y-4699D01*
X12248Y-4699D01*
X12779Y-5229D01*
X12133Y-5229D01*
X12084Y-5109D01*
X11944Y-4970D01*
X11763Y-4894D01*
X11566Y-4894D01*
X11384Y-4969D01*
X11244Y-5109D01*
X11169Y-5290D01*
X11169Y-5487D01*
X11219Y-5608D01*
X8745Y-8082D01*
X8710Y-8134D01*
X8698Y-8195D01*
X8698Y-9325D01*
X8629Y-9394D01*
X8588Y-9493D01*
X8588Y-9600D01*
X8622Y-9682D01*
X6070Y-9682D01*
X5978Y-9590D01*
X5978Y-9493D01*
X5937Y-9394D01*
X5861Y-9318D01*
X5762Y-9277D01*
X5655Y-9277D01*
X5555Y-9318D01*
X5479Y-9394D01*
X5438Y-9493D01*
X5438Y-9600D01*
X5479Y-9699D01*
X5555Y-9776D01*
X5654Y-9817D01*
X5752Y-9817D01*
X5890Y-9955D01*
X5942Y-9990D01*
X5988Y-9999D01*
X1282Y-9999D01*
X1282Y-4732D01*
X1282Y-4535D01*
X1207Y-4353D01*
X1136Y-4312D01*
X1108Y-4340D01*
X1108Y-4284D01*
X1067Y-4214D01*
X885Y-4138D01*
X688Y-4138D01*
X507Y-4214D01*
X466Y-4284D01*
X787Y-4605D01*
X1108Y-4284D01*
X1108Y-4340D01*
X815Y-4633D01*
X1136Y-4955D01*
X1207Y-4914D01*
X1282Y-4732D01*
X1282Y-9999D01*
X1108Y-9999D01*
X1108Y-4983D01*
X787Y-4662D01*
X759Y-4690D01*
X759Y-4633D01*
X437Y-4312D01*
X367Y-4353D01*
X292Y-4535D01*
X292Y-4732D01*
X367Y-4914D01*
X437Y-4955D01*
X759Y-4633D01*
X759Y-4690D01*
X466Y-4983D01*
X507Y-5053D01*
X689Y-5128D01*
X886Y-5128D01*
X1067Y-5053D01*
X1108Y-4983D01*
X1108Y-9999D01*
X236Y-9999D01*
X236Y-1185D01*
X406Y-1356D01*
X653Y-1458D01*
X920Y-1458D01*
X1167Y-1356D01*
X1356Y-1168D01*
X1458Y-921D01*
X1458Y-654D01*
X1356Y-407D01*
X1186Y-236D01*
X24995Y-236D01*
X24825Y-406D01*
X24722Y-653D01*
X24722Y-920D01*
X24824Y-1167D01*
X25013Y-1356D01*
X25259Y-1458D01*
X25526Y-1458D01*
X25773Y-1356D01*
X25944Y-1186D01*
X25944Y-3186D01*
X25869Y-3003D01*
X25864Y-2995D01*
X25782Y-2940D01*
X25754Y-2969D01*
X25754Y-2912D01*
X25698Y-2830D01*
X25474Y-2735D01*
X25231Y-2733D01*
X25005Y-2825D01*
X24997Y-2830D01*
X24942Y-2912D01*
X25348Y-3318D01*
X25754Y-2912D01*
X25754Y-2969D01*
X25376Y-3346D01*
X25782Y-3752D01*
X25864Y-3696D01*
X25944Y-3509D01*
X25944Y-6048D01*
X25754Y-6048D01*
X25754Y-3780D01*
X25348Y-3374D01*
X25320Y-3403D01*
X25320Y-3346D01*
X24914Y-2940D01*
X24832Y-2995D01*
X24737Y-3220D01*
X24735Y-3463D01*
X24827Y-3689D01*
X24832Y-3696D01*
X24914Y-3752D01*
X25320Y-3346D01*
X25320Y-3403D01*
X24942Y-3780D01*
X24997Y-3862D01*
X25222Y-3957D01*
X25465Y-3959D01*
X25691Y-3867D01*
X25698Y-3862D01*
X25754Y-3780D01*
X25754Y-6048D01*
X25168Y-6048D01*
X25138Y-6078D01*
X25138Y-6672D01*
X25145Y-6672D01*
X25145Y-6712D01*
X25138Y-6712D01*
X25138Y-7307D01*
X25168Y-7337D01*
X25944Y-7337D01*
X25944Y-8804D01*
M02*
